<svg width="24" height="26" viewBox="0 0 24 26" fill="none" xmlns="http://www.w3.org/2000/svg">
<g filter="url(#filter0_d_1675_2577)">
<rect x="0.5" y="0.5" width="23" height="23" rx="1.5" stroke="#E7E7E7"/>
</g>
<g clip-path="url(#clip0_1675_2577)">
<path d="M9.96408 7.60592H9.85693C9.91586 7.60592 9.96408 7.55771 9.96408 7.49878V7.60592H14.0355V7.49878C14.0355 7.55771 14.0837 7.60592 14.1427 7.60592H14.0355V8.57021H14.9998V7.49878C14.9998 7.02601 14.6154 6.64164 14.1427 6.64164H9.85693C9.38417 6.64164 8.99979 7.02601 8.99979 7.49878V8.57021H9.96408V7.60592ZM16.7141 8.57021H7.28551C7.04845 8.57021 6.85693 8.76173 6.85693 8.99878V9.42735C6.85693 9.48628 6.90515 9.53449 6.96408 9.53449H7.77301L8.10381 16.539C8.12524 16.9957 8.50292 17.3559 8.95961 17.3559H15.04C15.498 17.3559 15.8743 16.997 15.8958 16.539L16.2266 9.53449H17.0355C17.0944 9.53449 17.1427 9.48628 17.1427 9.42735V8.99878C17.1427 8.76173 16.9511 8.57021 16.7141 8.57021ZM14.9368 16.3916H9.06274L8.73863 9.53449H15.261L14.9368 16.3916Z" fill="#242424"/>
</g>
<defs>
<filter id="filter0_d_1675_2577" x="0" y="0" width="24" height="26" filterUnits="userSpaceOnUse" color-interpolation-filters="sRGB">
<feFlood flood-opacity="0" result="BackgroundImageFix"/>
<feColorMatrix in="SourceAlpha" type="matrix" values="0 0 0 0 0 0 0 0 0 0 0 0 0 0 0 0 0 0 127 0" result="hardAlpha"/>
<feOffset dy="2"/>
<feColorMatrix type="matrix" values="0 0 0 0 0 0 0 0 0 0 0 0 0 0 0 0 0 0 0.016 0"/>
<feBlend mode="normal" in2="BackgroundImageFix" result="effect1_dropShadow_1675_2577"/>
<feBlend mode="normal" in="SourceGraphic" in2="effect1_dropShadow_1675_2577" result="shape"/>
</filter>
<clipPath id="clip0_1675_2577">
<rect width="12" height="12" fill="white" transform="translate(6 6)"/>
</clipPath>
</defs>
</svg>
